<?xml version="1.0"?>
<svg xmlns="http://www.w3.org/2000/svg" height="512px" viewBox="0 0 512 512" width="512px" class=""><g><link xmlns="" type="text/css" id="dark-mode" rel="stylesheet" href=""/><style xmlns="" type="text/css" id="dark-mode-custom-style"/><g><link xmlns="" type="text/css" id="dark-mode" rel="stylesheet" href=""/><style xmlns="" type="text/css" id="dark-mode-custom-style"/><path d="m416 512h-320c-53.023438 0-96-42.976562-96-96v-320c0-53.023438 42.976562-96 96-96h320c53.023438 0 96 42.976562 96 96v320c0 53.023438-42.976562 96-96 96zm0 0" fill="#e3f8fa" data-original="#CD4349" class="" data-old_color="#e3f8fa" style="fill:#ED7C64"/><path d="m380.878906 366.929688-72.765625-71.761719c14.09375-17.167969 22.558594-38.992188 22.558594-62.800781 0-55.183594-45.375-99.917969-101.328125-99.917969s-101.34375 44.734375-101.34375 99.917969c0 55.183593 45.375 99.921874 101.328125 99.921874 24.144531 0 46.289063-8.351562 63.679687-22.257812l72.769532 71.761719c2.078125 2.046875 4.816406 3.085937 7.535156 3.085937 2.734375 0 5.457031-1.023437 7.535156-3.085937 4.191406-4.097657 4.191406-10.753907.03125-14.863281zm0 0" fill="#26c6da" data-original="#E7D0D0" class="active-path" style="fill:#FFC3BF" data-old_color="#26c6da"/></g></g> </svg>
